<svg width="54" height="16" viewBox="0 0 54 16" fill="none" xmlns="http://www.w3.org/2000/svg">
<g clip-path="url(#clip0_1454_493)">
<path d="M10.9945 4.41171H3.00854V0.264648H0.646484V6.5073H13.3791V0.264648H10.9945V4.41171Z" fill="black"/>
<path d="M53.6463 3.397C53.6463 1.49994 52.3865 0.264648 50.1595 0.264648H40.5088V6.52935H50.1595C52.3641 6.5073 53.6463 5.29406 53.6463 3.397ZM42.8708 4.41171V2.3823H50.047C50.7669 2.3823 51.2843 2.71318 51.2843 3.397C51.2843 4.08082 50.7894 4.41171 50.047 4.41171H42.8708Z" fill="black"/>
<path d="M0.646484 15.2646H3.00854V11.1396H10.9945V15.2646H13.3791V9.02197H0.646484V15.2646Z" fill="black"/>
<path d="M21.0273 9.02197V15.2646H23.4119V11.294L31.2629 15.2646H36.032L23.4119 9.02197H21.0273Z" fill="black"/>
<path d="M50.1595 9.02197H40.5088V15.2646H50.1595C52.3865 15.2646 53.6463 14.0293 53.6463 12.1323C53.6463 10.2352 52.3641 9.02197 50.1595 9.02197ZM50.047 13.169H42.8708V11.1396H50.047C50.7669 11.1396 51.2843 11.4705 51.2843 12.1543C51.2843 12.8381 50.7669 13.169 50.047 13.169Z" fill="black"/>
<path d="M23.4119 4.23524V0.264648H21.0273V6.5073H23.4119L36.032 0.264648H31.2629L23.4119 4.23524Z" fill="black"/>
</g>
<defs>
<clipPath id="clip0_1454_493">
<rect width="53" height="15" fill="white" transform="translate(0.646484 0.264648)"/>
</clipPath>
</defs>
</svg>
